<svg xmlns="http://www.w3.org/2000/svg" width="1200" height="630" viewBox="0 0 1200 630" fill="none">
  <!-- Background with gradient -->
  <rect width="1200" height="630" fill="#F0FDFA"/>
  <rect width="1200" height="630" fill="url(#paint0_linear)"/>
  
  <!-- Grid pattern overlay -->
  <rect width="1200" height="630" fill="url(#grid)" fill-opacity="0.05"/>
  
  <!-- Logo -->
  <g transform="translate(150, 180) scale(1.2)">
    <!-- N8N Icon (stylized) -->
    <path d="M50 60H70V132H50V60ZM122 60H142V132H122V60Z" fill="#0D9488"/>
    <path d="M50 60L122 132" stroke="#0D9488" stroke-width="12" stroke-linecap="round"/>
    
    <!-- Make.com Icon (stylized) -->
    <path d="M70 60L142 60" stroke="#0D9488" stroke-width="12" stroke-linecap="round"/>
    <path d="M70 96L142 96" stroke="#0D9488" stroke-width="12" stroke-linecap="round"/>
    <path d="M70 132L142 132" stroke="#0D9488" stroke-width="12" stroke-linecap="round"/>
  </g>
  
  <!-- Text -->
  <text x="350" y="230" font-family="Inter, sans-serif" font-weight="800" font-size="72" fill="#0D9488">N8N & Make</text>
  <text x="350" y="310" font-family="Inter, sans-serif" font-weight="700" font-size="48" fill="#0F766E">AI Automation</text>
  
  <!-- Tagline -->
  <text x="350" y="380" font-family="Inter, sans-serif" font-weight="500" font-size="32" fill="#4B5563">Enterprise-Grade Business Automation</text>
  
  <!-- Features -->
  <g transform="translate(350, 440)">
    <circle cx="15" cy="15" r="15" fill="#2DD4BF"/>
    <text x="45" y="22" font-family="Inter, sans-serif" font-weight="500" font-size="24" fill="#4B5563">Custom Workflow Solutions</text>
  </g>
  
  <g transform="translate(700, 440)">
    <circle cx="15" cy="15" r="15" fill="#2DD4BF"/>
    <text x="45" y="22" font-family="Inter, sans-serif" font-weight="500" font-size="24" fill="#4B5563">AI-Powered Automation</text>
  </g>
  
  <g transform="translate(350, 490)">
    <circle cx="15" cy="15" r="15" fill="#2DD4BF"/>
    <text x="45" y="22" font-family="Inter, sans-serif" font-weight="500" font-size="24" fill="#4B5563">Increased Productivity</text>
  </g>
  
  <g transform="translate(700, 490)">
    <circle cx="15" cy="15" r="15" fill="#2DD4BF"/>
    <text x="45" y="22" font-family="Inter, sans-serif" font-weight="500" font-size="24" fill="#4B5563">Time & Cost Savings</text>
  </g>
  
  <!-- Definitions -->
  <defs>
    <linearGradient id="paint0_linear" x1="0" y1="0" x2="1200" y2="630" gradientUnits="userSpaceOnUse">
      <stop offset="0" stop-color="#F0FDFA"/>
      <stop offset="1" stop-color="#CCFBF1"/>
    </linearGradient>
    
    <pattern id="grid" patternUnits="userSpaceOnUse" width="40" height="40" patternTransform="scale(2)">
      <rect width="40" height="40" fill="#0D9488"/>
      <path d="M0 40L40 0H20L0 20M40 40V20L20 40" fill="#0D9488"/>
    </pattern>
  </defs>
</svg>